{"title":"Scream.4.2011.TS.XVID.AC3.HQ.Hive-CM8","uid":6329434,"size":1607273699,"categoryP":"video","categoryS":"movies","magnet":"?xt=urn:btih:5cf541dda09d9e82510aeaafcde4dc424e20920c&amp;dn=Scream.4.2011.TS.XVID.AC3.HQ.Hive-CM8&amp;tr=udp%3A%2F%2Ftracker.openbittorrent.com%3A80&amp;tr=udp%3A%2F%2Fopen.demonii.com%3A1337&amp;tr=udp%3A%2F%2Ftracker.coppersurfer.tk%3A6969&amp;tr=udp%3A%2F%2Fexodus.desync.com%3A6969","seeders":0,"leechers":0,"uploader":"TvTeam","files":6,"time":1303226917,"description":". \n  &lt;a href=&quot;\nhttp://www.torrenting.com/&quot; rel=&quot;nofollow&quot; target=&quot;_NEW&quot;&gt;\nhttp://www.torrenting.com/&lt;/a&gt;        :     Greatest Movie Tracker on The Net!!!\n &lt;a href=&quot;\nhttp://www.Torrenting.com&quot; rel=&quot;nofollow&quot; target=&quot;_NEW&quot;&gt;\nhttp://www.Torrenting.com&lt;/a&gt;          :     Once &amp; For all ;)\n\n\n               www . Torrenting . Com \n\n(((((((((((((= Enjoy No RAR releases =))))))))))))))))))))\n\n\n...................................NFO:....................................\n\n.[img]http://img96.imageshack.us/img96/797/scream4poster02.jpg[/img]\n\n[color=blue][size=5][b]Scream.4.2011.TS.XVID.AC3.HQ.Hive-CM8[/b][/size][/color]\n\n\n[b]Thx Hive\n\n\nCM8 Doing It Right The First Time :D\n\n\nSource: Great new Video from Russian Site, its almost DVD-Quality  Thx\nAudio: Imagines Line-Audio Thx\n\nEncode: corrected the Aspect, fixed rgb, corrected some overcontrasting,sharpened it and cleaned the audio.\nAnd I finally synced the imagine ts audio to the avi, yes its lipsync :))\n\nVideo: 720x296 @bitrate 1800 2pass\nAudio: English AC3 2.0 Stereo\nSample: yes included[/b]\n\n\n[url]http://www.imdb.com/title/tt1262416/[/url]\n\n\nGeneral\nComplete name                    : Scream.4.2011.TS.XVID.AC3.HQ.Hive-CM8.avi\nFormat                           : AVI\nFormat/Info                      : Audio Video Interleave\nFile size                        : 1.49 GiB\nDuration                         : 1h 43mn\nOverall bit rate                 : 2 066 Kbps\nWriting application              : Nandub v1.0rc2\nWriting library                  : Nandub build 1853/release\n\nVideo\nID                               : 0\nFormat                           : MPEG-4 Visual\nFormat profile                   : Advanced Simple@L5\nFormat settings, BVOP            : Yes\nFormat settings, QPel            : Yes\nFormat settings, GMC             : No warppoints\nFormat settings, Matrix          : Default (H.263)\nMuxing mode                      : Packed bitstream\nCodec ID                         : XVID\nCodec ID/Hint                    : XviD\nDuration                         : 1h 43mn\nBit rate                         : 1 800 Kbps\nWidth                            : 720 pixels\nHeight                           : 296 pixels\nDisplay aspect ratio             : 2.40:1\nFrame rate                       : 25.000 fps\nColor space                      : YUV\nChroma subsampling               : 4:2:0\nBit depth                        : 8 bits\nScan type                        : Progressive\nBits/(Pixel*Frame)               : 0.338\nStream size                      : 1.30 GiB (87%)\nWriting library                  : XviD 1.2.1 (UTC 2008-12-04)\n\nAudio\nID                               : 1\nFormat                           : AC-3\nFormat/Info                      : Audio Coding 3\nMode extension                   : CM (complete main)\nCodec ID                         : 2000\nDuration                         : 1h 43mn\nBit rate mode                    : Constant\nBit rate                         : 256 Kbps\nChannel(s)                       : 2 channels\nChannel positions                : Front: L R\nSampling rate                    : 48.0 KHz\nBit depth                        : 16 bits\nStream size                      : 189 MiB (12%)\nAlignment                        : Split accross interleaves\nInterleave, duration             : 40 ms (1.00 video frame)\nInterleave, preload duration     : 500 ms\n\nLucy Hale ... Sherrie\nShenae Grimes ... Trudie\nAnna Paquin ... Rachel\nKristen Bell ... Chloe\nAimee Teegarden ... Jenny Randall\nBrittany Robertson ... Marnie Cooper\nNeve Campbell ... Sidney Prescott\nAlison Brie ... Rebecca Walters\nDavid Arquette ... Dewey Riley\nCourteney Cox ... Gale Weathers-Riley\nHayden Panettiere ... Kirby Reed\nEmma Roberts ... Jill Roberts\nMarielle Jaffe ... Olivia Morris   \n\n\nTen years have passed, and Sidney Prescott, who has put herself back \ntogether thanks in part to her writing, is visited by the Ghostface Killer. \n \n\n[img]http://img861.imageshack.us/img861/1772/scsct.png[/img]\n[img]http://img535.imageshack.us/img535/7395/scscsc.png[/img]\n[img]http://img847.imageshack.us/img847/7973/scscscsc.png[/img]\n[img]http://img856.imageshack.us/img856/6448/scscscscsc.png[/img]\n[img]http://img231.imageshack.us/img231/5039/scscscscscsc.png[/img]\n[img]http://img846.imageshack.us/img846/1016/ssccscscscscscsc.png[/img]\n[img]http://img98.imageshack.us/img98/1827/scscscscscscsc.png[/img]\n\n\n\n\nViSiON,LUSi,SANTi,MAGNET,THC,T0XiCiNK,LKRG,IMAGiNE,WBZ,FLAWL3SS,NOVA\nVik,Rapeseed,D2U,SAFC,goldadvance,MEMORY100,KaN1vE,Unevano,Pinnz,Wayne,Mr Hive\nand all P2P groups \nGreat Work Guys :D\n\n&lt;a class=&quot;__cf_email__&quot; href=&quot;/cdn-cgi/l/email-protection&quot; data-cfemail=&quot;46050b7e062e33352e2b272f2a6825292b&quot;&gt;[email&amp;#160;protected]&lt;/a&gt;&lt;script cf-hash='f9e31' type=&quot;text/javascript&quot;&gt;\n/* &lt;![CDATA[ */!function(){try{var t=&quot;currentScript&quot;in document?document.currentScript:function(){for(var t=document.getElementsByTagName(&quot;script&quot;),e=t.length;e--;)if(t[e].getAttribute(&quot;cf-hash&quot;))return t[e]}();if(t&amp;&amp;t.previousSibling){var e,r,n,i,c=t.previousSibling,a=c.getAttribute(&quot;data-cfemail&quot;);if(a){for(e=&quot;&quot;,r=parseInt(a.substr(0,2),16),n=2;a.length-n;n+=2)i=parseInt(a.substr(n,2),16)^r,e+=String.fromCharCode(i);e=document.createTextNode(e),c.parentNode.replaceChild(e,c)}}}catch(u){}}();/* ]]&gt; */&lt;/script&gt;","torrent":{"xt":"urn:btih:5cf541dda09d9e82510aeaafcde4dc424e20920c","amp;dn":"Scream.4.2011.TS.XVID.AC3.HQ.Hive-CM8","amp;tr":["udp%3A%2F%2Ftracker.openbittorrent.com%3A80","udp%3A%2F%2Fopen.demonii.com%3A1337","udp%3A%2F%2Ftracker.coppersurfer.tk%3A6969","udp%3A%2F%2Fexodus.desync.com%3A6969"],"infoHash":"5cf541dda09d9e82510aeaafcde4dc424e20920c","infoHashBuffer":{"type":"Buffer","data":[92,245,65,221,160,157,158,130,81,10,234,175,205,228,220,66,78,32,146,12]},"announce":[],"urlList":[]}}